<svg viewBox="0 0 405 100" fill="none" xmlns="http://www.w3.org/2000/svg">
<path d="M95.9487 11.3371C92.7238 7.90704 88.7807 5.06504 84.2395 3.08633C79.7019 1.10606 74.57 -0.00311841 69.0477 6.58539e-06C68.0363 6.58539e-06 67.0066 0.0341863 65.9632 0.111921H65.9685C58.3365 0.675006 51.6924 3.87325 46.1198 7.4668C40.6898 10.9793 36.1839 14.9461 32.8703 17.5455C24.5536 21.6459 16.9197 26.1963 11.0242 32.1572C8.03856 35.1828 5.51202 38.5787 3.6435 42.4195C1.77308 46.257 0.569304 50.5289 0.165663 55.2516C0.0552919 56.5318 1.43671e-06 57.7918 1.43671e-06 59.0318C-0.0016804 65.4705 1.47329 71.3225 4.08876 76.4203C8.01375 84.077 14.4653 89.9959 22.0973 93.9644C29.7358 97.9375 38.5667 99.9971 47.4728 100C60.0879 100.002 71.5408 95.2289 79.7887 87.535C87.2332 81.5148 93.6194 72.693 98.3029 63.5273C100.659 58.8996 102.569 54.1861 103.9 49.6824C105.231 45.1775 105.997 40.8918 106 37.034C105.997 27.3895 102.394 18.202 95.9487 11.3371ZM96.9519 47.9078C95.1418 54.026 92.0676 60.8146 88.2047 67.0074C84.352 73.2049 79.6921 78.8144 74.8917 82.6287L74.7878 82.7111L74.6858 82.8076C67.7203 89.2945 58.1176 93.3018 47.4733 93.3033C37.1941 93.3096 27.0169 90.0894 19.5556 84.2326C15.8185 81.3066 12.7475 77.7318 10.5975 73.5395C8.45103 69.3473 7.21025 64.5293 7.20857 59.032C7.20857 57.9742 7.25356 56.8914 7.34922 55.7855C7.69589 51.783 8.69048 48.3063 10.2107 45.1795C12.4946 40.4924 15.9941 36.5443 20.5016 32.9744C25.006 29.4119 30.5077 26.265 36.6027 23.2846L36.9426 23.1166L37.2391 22.8865C40.8491 20.0631 45.2175 16.2035 50.2359 12.9664C55.2457 9.72149 60.793 7.192 66.5281 6.78907H66.5331C67.3837 6.7254 68.2225 6.69571 69.0481 6.69571C73.5405 6.69883 77.5843 7.58399 81.1792 9.14883C86.5607 11.4947 90.9475 15.3977 94.0152 20.2715C97.0776 25.1404 98.7939 30.966 98.7923 37.0346C98.7952 40.0535 98.1591 43.8352 96.9519 47.9078Z" fill="#EB339B"/>
<path d="M40.8071 75.6924C38.2988 75.6924 36.2644 77.5809 36.2644 79.9112C36.2644 82.2446 38.2988 84.133 40.8071 84.133C43.3153 84.133 45.3497 82.2444 45.3497 79.9112C45.3497 77.5809 43.3155 75.6924 40.8071 75.6924Z" fill="#EB339B"/>
<path d="M67.2359 58.9495C64.7277 58.9495 62.6933 60.8395 62.6933 63.1698C62.6933 65.5032 64.7277 67.3917 67.2359 67.3917C69.7442 67.3917 71.7788 65.5032 71.7788 63.1698C71.7788 60.8395 69.7442 58.9495 67.2359 58.9495Z" fill="#EB339B"/>
<path d="M54.2845 26.8262C51.7779 26.8262 49.7435 28.7163 49.7435 31.0465C49.7435 33.3801 51.7779 35.2684 54.2845 35.2684C56.7947 35.2684 58.8288 33.3799 58.8288 31.0465C58.8288 28.7163 56.7944 26.8262 54.2845 26.8262Z" fill="#EB339B"/>
<path d="M80.7133 31.2895C78.2051 31.2895 76.1724 33.1811 76.1724 35.5098C76.1724 37.843 78.2051 39.7317 80.7133 39.7317C83.2235 39.7317 85.2577 37.843 85.2577 35.5098C85.2577 33.1809 83.2235 31.2895 80.7133 31.2895Z" fill="#EB339B"/>
<path d="M32.3966 48.9047C29.8883 48.9047 27.854 50.795 27.854 53.1252C27.854 55.4569 29.8883 57.3456 32.3966 57.3456C34.9067 57.3456 36.9409 55.4569 36.9409 53.1252C36.9409 50.795 34.9065 48.9047 32.3966 48.9047Z" fill="#EB339B"/>
<path d="M122.846 28.0931C122.846 24.8655 123.312 21.6069 124.243 18.3172C125.174 15.0276 126.601 12.2034 128.525 9.84483C132.622 4.63103 138.456 2.02414 146.029 2.02414C150.374 2.02414 154.594 2.98621 158.691 4.91035C159.746 5.34483 160.274 6.05862 160.274 7.05172C160.274 8.91379 159.529 9.87586 158.039 9.93793C157.729 9.93793 157.45 9.9069 157.201 9.84483C152.918 8.35517 149.505 7.61034 146.96 7.61034C144.477 7.61034 142.398 7.88965 140.722 8.44828C139.046 9.0069 137.587 9.78276 136.346 10.7759C135.105 11.769 134.05 12.9172 133.181 14.2207C132.312 15.5241 131.629 16.9828 131.132 18.5966C130.077 21.5759 129.55 24.7414 129.55 28.0931C129.55 33.5552 130.76 38.1483 133.181 41.8724C136.036 46.2793 140.443 48.4828 146.401 48.4828C150.498 48.4828 154.408 47.3966 158.132 45.2241C158.629 45.1 159.094 45.0379 159.529 45.0379C160.025 45.0379 160.46 45.2552 160.832 45.6897C161.267 46.1241 161.484 46.6828 161.484 47.3655C161.484 48.0483 161.236 48.7 160.739 49.3207C160.243 49.8793 159.56 50.4069 158.691 50.9035C157.884 51.3379 156.953 51.7414 155.898 52.1138C154.905 52.4862 153.85 52.7966 152.732 53.0448C150.374 53.6655 148.139 53.9759 146.029 53.9759C138.394 53.9759 132.56 51.4 128.525 46.2483C124.739 41.5931 122.846 35.5414 122.846 28.0931Z" fill="#EB339B"/>
<path d="M174.854 5.56207C174.854 4.32069 175.537 3.35862 176.903 2.67586C177.275 2.48966 177.678 2.39655 178.113 2.39655H193.289C201.482 2.39655 207.006 4.56897 209.861 8.9138C210.854 10.7138 211.351 13.0103 211.351 15.8034C211.351 18.5345 210.451 20.8621 208.651 22.7862C206.851 24.7103 204.275 26.0138 200.923 26.6966V26.9759C204.151 27.5345 206.447 28.7448 207.813 30.6069C208.868 32.1586 209.52 34.2379 209.768 36.8448C210.078 39.4517 210.327 41.5 210.513 42.9897C210.699 45.1621 210.885 47.5517 211.072 50.1586C211.072 51.2138 210.73 51.9897 210.047 52.4862C209.427 52.9828 208.713 53.231 207.906 53.231C207.099 53.231 206.385 53.0138 205.765 52.5793C205.144 52.0828 204.772 51.369 204.647 50.4379C204.399 47.5828 204.182 45.069 203.996 42.8966C203.81 40.6621 203.592 38.8 203.344 37.3103C203.096 35.7586 202.754 34.4862 202.32 33.4931C201.885 32.5 201.296 31.7241 200.551 31.1655C199.31 30.2345 196.858 29.7069 193.196 29.5828H181.185V50.1586C181.185 51.6483 180.534 52.6103 179.23 53.0448C178.858 53.169 178.361 53.231 177.741 53.231C177.182 53.231 176.561 52.9828 175.878 52.4862C175.196 51.9897 174.854 51.2138 174.854 50.1586V5.56207ZM190.496 24.7414C196.392 24.7414 200.365 23.8103 202.413 21.9483C203.903 20.6448 204.71 18.6897 204.834 16.0828C204.834 12.4207 203.468 10 200.737 8.82069C199.247 8.07586 197.758 7.67241 196.268 7.61034C194.778 7.48621 193.599 7.42414 192.73 7.42414H181.185V24.7414H190.496Z" fill="#EB339B"/>
<path d="M227.142 53.231C226.397 53.231 225.776 52.9828 225.28 52.4862C224.411 51.7414 223.976 50.9655 223.976 50.1586V5.56207C223.976 4.38276 224.597 3.45172 225.838 2.76896C226.211 2.64483 226.583 2.52069 226.956 2.39655H253.49C254.421 2.39655 255.104 2.67586 255.538 3.23448C255.973 3.7931 256.19 4.41379 256.19 5.09655C256.19 5.71724 255.942 6.3069 255.445 6.86552C254.949 7.42414 254.297 7.70345 253.49 7.70345H230.121V24.5552H252.373C253.304 24.5552 253.987 24.8345 254.421 25.3931C254.856 25.8897 255.073 26.4793 255.073 27.1621C255.073 27.7828 254.825 28.3414 254.328 28.8379C253.832 29.3345 253.18 29.5828 252.373 29.5828H230.121V48.0172H254.514C255.383 48.0172 256.035 48.2966 256.47 48.8552C256.904 49.4138 257.121 50.0345 257.121 50.7172C257.121 51.4 256.873 51.9897 256.376 52.4862C255.942 52.9828 255.321 53.231 254.514 53.231H227.142Z" fill="#EB339B"/>
<path d="M265.624 28.0931C265.624 24.8655 266.09 21.6069 267.021 18.3172C267.952 15.0276 269.38 12.2034 271.304 9.84483C275.4 4.63103 281.235 2.02414 288.807 2.02414C293.152 2.02414 297.373 2.98621 301.469 4.91035C302.524 5.34483 303.052 6.05862 303.052 7.05172C303.052 8.91379 302.307 9.87586 300.818 9.93793C300.507 9.93793 300.228 9.9069 299.98 9.84483C295.697 8.35517 292.283 7.61034 289.738 7.61034C287.255 7.61034 285.176 7.88965 283.5 8.44828C281.824 9.0069 280.366 9.78276 279.124 10.7759C277.883 11.769 276.828 12.9172 275.959 14.2207C275.09 15.5241 274.407 16.9828 273.911 18.5966C272.855 21.5759 272.328 24.7414 272.328 28.0931C272.328 33.5552 273.538 38.1483 275.959 41.8724C278.814 46.2793 283.221 48.4828 289.18 48.4828C293.276 48.4828 297.186 47.3966 300.911 45.2241C301.407 45.1 301.873 45.0379 302.307 45.0379C302.804 45.0379 303.238 45.2552 303.611 45.6897C304.045 46.1241 304.262 46.6828 304.262 47.3655C304.262 48.0483 304.014 48.7 303.518 49.3207C303.021 49.8793 302.338 50.4069 301.469 50.9035C300.662 51.3379 299.731 51.7414 298.676 52.1138C297.683 52.4862 296.628 52.7966 295.511 53.0448C293.152 53.6655 290.918 53.9759 288.807 53.9759C281.173 53.9759 275.338 51.4 271.304 46.2483C267.518 41.5931 265.624 35.5414 265.624 28.0931Z" fill="#EB339B"/>
<path d="M350.405 5.46897C350.405 4.04138 351.119 3.11034 352.546 2.67586C352.919 2.61379 353.384 2.55172 353.943 2.48966C354.502 2.42759 355.122 2.64483 355.805 3.14138C356.488 3.63793 356.829 4.41379 356.829 5.46897V50.1586C356.829 51.0897 356.55 51.8035 355.991 52.3C355.246 52.9207 354.44 53.231 353.571 53.231C352.764 53.231 352.019 52.9828 351.336 52.4862C350.715 51.9897 350.405 51.2138 350.405 50.1586V29.4897H323.684V50.1586C323.684 51.0897 323.436 51.8035 322.94 52.3C322.195 52.9207 321.388 53.231 320.519 53.231C319.65 53.231 318.905 52.9828 318.284 52.4862C317.664 51.9897 317.353 51.2138 317.353 50.1586V5.46897C317.353 4.04138 318.036 3.11034 319.402 2.67586C319.774 2.61379 320.24 2.55172 320.798 2.48966C321.357 2.42759 321.978 2.64483 322.66 3.14138C323.343 3.63793 323.684 4.41379 323.684 5.46897V24.1828H350.405V5.46897Z" fill="#EB339B"/>
<path d="M373.875 53.231C373.131 53.231 372.51 52.9828 372.013 52.4862C371.144 51.7414 370.71 50.9655 370.71 50.1586V5.56207C370.71 4.38276 371.331 3.45172 372.572 2.76896C372.944 2.64483 373.317 2.52069 373.689 2.39655H400.224C401.155 2.39655 401.837 2.67586 402.272 3.23448C402.706 3.7931 402.924 4.41379 402.924 5.09655C402.924 5.71724 402.675 6.3069 402.179 6.86552C401.682 7.42414 401.03 7.70345 400.224 7.70345H376.855V24.5552H399.106C400.037 24.5552 400.72 24.8345 401.155 25.3931C401.589 25.8897 401.806 26.4793 401.806 27.1621C401.806 27.7828 401.558 28.3414 401.062 28.8379C400.565 29.3345 399.913 29.5828 399.106 29.5828H376.855V48.0172H401.248C402.117 48.0172 402.768 48.2966 403.203 48.8552C403.637 49.4138 403.855 50.0345 403.855 50.7172C403.855 51.4 403.606 51.9897 403.11 52.4862C402.675 52.9828 402.055 53.231 401.248 53.231H373.875Z" fill="#EB339B"/>
<path d="M122 62.1379C122 61.6092 122.154 61.1906 122.463 60.8822C122.991 60.3534 123.564 60.045 124.181 59.9569H135.813C139.03 59.9569 141.673 60.8161 143.744 62.5345C145.771 64.1648 146.784 66.3458 146.784 69.0776C146.784 71.0603 146.168 72.7787 144.934 74.2328C143.612 75.7308 141.916 76.7222 139.845 77.2069V77.273C143.81 77.978 146.432 79.8726 147.71 82.9569C148.062 83.9262 148.239 85.0278 148.239 86.2615C148.239 87.4952 148.04 88.7069 147.644 89.8966C147.247 91.0862 146.564 92.1216 145.595 93.0029C143.392 95.0297 140.285 96.0431 136.276 96.0431H124.181C123.652 96.0431 123.19 95.8669 122.793 95.5144C122.264 95.0738 122 94.523 122 93.8621V62.1379ZM126.362 92.6063H133.963C137.311 92.6063 139.669 92.1216 141.034 91.1523C142.753 90.0948 143.612 88.3324 143.612 85.8649C143.612 81.9875 141.321 79.7845 136.739 79.2558C135.373 79.1676 133.83 79.1236 132.112 79.1236H126.362V92.6063ZM142.224 69.4741C142.224 65.4205 139.426 63.4377 133.83 63.5259H126.362V75.819H133.897C137.598 75.819 140.131 74.6954 141.497 72.4483C141.982 71.6552 142.224 70.6638 142.224 69.4741Z" fill="#EB339B"/>
<path d="M185.753 93.2672C185.797 93.5316 185.819 93.796 185.819 94.0603C185.819 94.3247 185.753 94.5891 185.621 94.8534C185.488 95.1178 185.312 95.3161 185.092 95.4483C184.651 95.8448 184.167 96.0431 183.638 96.0431C182.58 96.0431 181.875 95.5805 181.523 94.6552L178.284 86.6581H160.44L157.267 94.6552C156.959 95.5805 156.342 96.0431 155.417 96.0431C154.491 96.0431 153.786 95.6466 153.302 94.8534C153.169 94.5891 153.103 94.3467 153.103 94.1264C153.103 93.9061 153.169 93.6197 153.302 93.2672L165.264 63.9224C166.146 61.7193 167.159 60.4636 168.305 60.1552C168.613 60.1111 169.009 60.045 169.494 59.9569C170.375 59.9569 171.036 60.1552 171.477 60.5517C172.182 61.0805 172.887 62.204 173.592 63.9224L185.753 93.2672ZM161.695 83.1552H177.095L169.362 63.7241L161.695 83.1552Z" fill="#EB339B"/>
<path d="M189.587 63.7241C188.926 63.7241 188.441 63.5259 188.132 63.1293C187.824 62.7328 187.67 62.3142 187.67 61.8736C187.67 61.3889 187.824 60.9483 188.132 60.5517C188.441 60.1552 188.926 59.9569 189.587 59.9569H213.71C214.327 59.9569 214.79 60.1552 215.098 60.5517C215.406 60.9483 215.561 61.3889 215.561 61.8736C215.561 62.3142 215.384 62.7328 215.032 63.1293C214.723 63.5259 214.283 63.7241 213.71 63.7241H203.928V93.8621C203.928 94.8755 203.488 95.5584 202.607 95.9109C202.342 95.999 201.99 96.0431 201.549 96.0431C201.109 96.0431 200.646 95.8669 200.161 95.5144C199.677 95.1619 199.434 94.6111 199.434 93.8621V63.7241H189.587Z" fill="#EB339B"/>
<path d="M249.991 93.2672C250.035 93.5316 250.057 93.796 250.057 94.0603C250.057 94.3247 249.991 94.5891 249.859 94.8534C249.727 95.1178 249.55 95.3161 249.33 95.4483C248.89 95.8448 248.405 96.0431 247.876 96.0431C246.819 96.0431 246.114 95.5805 245.761 94.6552L242.523 86.6581H224.678L221.505 94.6552C221.197 95.5805 220.58 96.0431 219.655 96.0431C218.73 96.0431 218.025 95.6466 217.54 94.8534C217.408 94.5891 217.342 94.3467 217.342 94.1264C217.342 93.9061 217.408 93.6197 217.54 93.2672L229.503 63.9224C230.384 61.7193 231.397 60.4636 232.543 60.1552C232.851 60.1111 233.248 60.045 233.732 59.9569C234.614 59.9569 235.275 60.1552 235.715 60.5517C236.42 61.0805 237.125 62.204 237.83 63.9224L249.991 93.2672ZM225.934 83.1552H241.333L233.6 63.7241L225.934 83.1552Z" fill="#EB339B"/>
<path d="M253.825 63.7241C253.164 63.7241 252.679 63.5259 252.371 63.1293C252.062 62.7328 251.908 62.3142 251.908 61.8736C251.908 61.3889 252.062 60.9483 252.371 60.5517C252.679 60.1552 253.164 59.9569 253.825 59.9569H277.948C278.565 59.9569 279.028 60.1552 279.336 60.5517C279.645 60.9483 279.799 61.3889 279.799 61.8736C279.799 62.3142 279.623 62.7328 279.27 63.1293C278.962 63.5259 278.521 63.7241 277.948 63.7241H268.167V93.8621C268.167 94.8755 267.726 95.5584 266.845 95.9109C266.581 95.999 266.228 96.0431 265.787 96.0431C265.347 96.0431 264.884 95.8669 264.4 95.5144C263.915 95.1619 263.672 94.6111 263.672 93.8621V63.7241H253.825Z" fill="#EB339B"/>
<path d="M285.612 62.1379C285.612 61.2126 286.052 60.5517 286.933 60.1552C287.198 60.1111 287.572 60.067 288.057 60.023C288.542 59.9789 288.982 60.1331 289.379 60.4856C289.819 60.8381 290.04 61.3889 290.04 62.1379V93.8621C290.04 94.9195 289.577 95.6025 288.652 95.9109C288.387 95.999 288.035 96.0431 287.594 96.0431C287.154 96.0431 286.713 95.8669 286.272 95.5144C285.832 95.1619 285.612 94.6111 285.612 93.8621V62.1379Z" fill="#EB339B"/>
<path d="M299.831 62.931C299.831 62.0939 300.117 61.4109 300.69 60.8822C301.219 60.3534 301.792 60.045 302.409 59.9569C303.642 59.9569 304.612 60.4416 305.317 61.4109L324.483 90.2931V62.0718C324.483 61.3669 324.615 60.8822 324.88 60.6178C325.364 60.1772 325.827 59.9569 326.268 59.9569C326.752 59.9569 327.127 60.001 327.391 60.0891C327.656 60.1772 327.876 60.3094 328.052 60.4856C328.537 60.8381 328.757 61.3669 328.713 62.0718V93.069C328.713 94.3908 328.074 95.3161 326.797 95.8448C326.488 95.977 326.092 96.0431 325.607 96.0431C324.549 96.0431 323.624 95.5584 322.831 94.5891L304.127 66.1034V94.0603C304.127 94.6772 303.951 95.1178 303.598 95.3822C303.07 95.8228 302.519 96.0431 301.946 96.0431C301.373 96.0431 300.866 95.8889 300.426 95.5805C300.029 95.228 299.831 94.7213 299.831 94.0603V62.931Z" fill="#EB339B"/>
<path d="M361.405 62.1379C361.405 61.1245 361.911 60.4636 362.925 60.1552C363.189 60.1111 363.52 60.067 363.916 60.023C364.313 59.9789 364.753 60.1331 365.238 60.4856C365.723 60.8381 365.965 61.3889 365.965 62.1379V93.8621C365.965 94.523 365.767 95.0297 365.37 95.3822C364.841 95.8228 364.269 96.0431 363.652 96.0431C363.079 96.0431 362.55 95.8669 362.066 95.5144C361.625 95.1619 361.405 94.6111 361.405 93.8621V79.1897H342.436V93.8621C342.436 94.523 342.26 95.0297 341.908 95.3822C341.379 95.8228 340.806 96.0431 340.189 96.0431C339.572 96.0431 339.044 95.8669 338.603 95.5144C338.162 95.1619 337.942 94.6111 337.942 93.8621V62.1379C337.942 61.1245 338.427 60.4636 339.396 60.1552C339.66 60.1111 339.991 60.067 340.387 60.023C340.784 59.9789 341.225 60.1331 341.709 60.4856C342.194 60.8381 342.436 61.3889 342.436 62.1379V75.4224H361.405V62.1379Z" fill="#EB339B"/>
<path d="M404.635 93.2672C404.679 93.5316 404.701 93.796 404.701 94.0603C404.701 94.3247 404.635 94.5891 404.502 94.8534C404.37 95.1178 404.194 95.3161 403.974 95.4483C403.533 95.8448 403.048 96.0431 402.52 96.0431C401.462 96.0431 400.757 95.5805 400.405 94.6552L397.166 86.6581H379.321L376.149 94.6552C375.841 95.5805 375.224 96.0431 374.298 96.0431C373.373 96.0431 372.668 95.6466 372.183 94.8534C372.051 94.5891 371.985 94.3467 371.985 94.1264C371.985 93.9061 372.051 93.6197 372.183 93.2672L384.146 63.9224C385.027 61.7193 386.041 60.4636 387.186 60.1552C387.495 60.1111 387.891 60.045 388.376 59.9569C389.257 59.9569 389.918 60.1552 390.359 60.5517C391.064 61.0805 391.769 62.204 392.474 63.9224L404.635 93.2672ZM380.577 83.1552H395.977L388.244 63.7241L380.577 83.1552Z" fill="#EB339B"/>
</svg>
